HIERARCHY
ROOT root
{
	OFFSET	0	13.1	24.9
	CHANNELS 6  Xposition Yposition Zposition Xrotation Yrotation Zrotation
	JOINT spine_1
	{
		OFFSET	0	9.99999	0
		CHANNELS 3  Xrotation Yrotation Zrotation
		JOINT spine_2
		{
			OFFSET	0	112	-10
			CHANNELS 3  Xrotation Yrotation Zrotation
			JOINT spine_3
			{
				OFFSET	0	206.5	19.3
				CHANNELS 3  Xrotation Yrotation Zrotation
				JOINT spine_4
				{
					OFFSET	0	110.4	14.6
					CHANNELS 3  Xrotation Yrotation Zrotation
					JOINT neck_1
					{
						OFFSET	0	71.8	-50.3
						CHANNELS 3  Xrotation Yrotation Zrotation
						JOINT neck_2
						{
							OFFSET	0	86.2	-25.8
							CHANNELS 3  Xrotation Yrotation Zrotation
							JOINT head_ee
							{
								OFFSET	0	179.8	-8.7
								CHANNELS 3  Xrotation Yrotation Zrotation
								End Site
								{
									OFFSET	1	0	0
								}
							}
						}
					}
					JOINT left_clavicle
					{
						OFFSET	-43.2	22.4	-70.8
						CHANNELS 3  Xrotation Yrotation Zrotation
						JOINT left_shoulder
						{
							OFFSET	-93.9	-5.79999	48.7
							CHANNELS 3  Xrotation Yrotation Zrotation
							JOINT left_elbow
							{
								OFFSET	-291.4	-30.8	15.2
								CHANNELS 3  Xrotation Yrotation Zrotation
								JOINT left_lowarm_twist
								{
									OFFSET	-110.7	-3.89999	13.6
									CHANNELS 3  Xrotation Yrotation Zrotation
									JOINT left_hand
									{
										OFFSET	-110.7	-3.89999	13.6
										CHANNELS 3  Xrotation Yrotation Zrotation
										JOINT left_ee
										{
											OFFSET	-80.8	-5.10001	12.1
											CHANNELS 3  Xrotation Yrotation Zrotation
											End Site
											{
												OFFSET	1	0	0
											}
										}
									}
								}
							}
						}
					}
					JOINT right_clavicle
					{
						OFFSET	43.2	22.4	-70.8
						CHANNELS 3  Xrotation Yrotation Zrotation
						JOINT right_shoulder
						{
							OFFSET	93.9	-5.79999	48.7
							CHANNELS 3  Xrotation Yrotation Zrotation
							JOINT right_elbow
							{
								OFFSET	291.4	-30.8	15.2
								CHANNELS 3  Xrotation Yrotation Zrotation
								JOINT right_lowarm_twist
								{
									OFFSET	110.7	-3.89999	13.6
									CHANNELS 3  Xrotation Yrotation Zrotation
									JOINT right_hand
									{
										OFFSET	110.7	-3.89999	13.6
										CHANNELS 3  Xrotation Yrotation Zrotation
										JOINT right_ee
										{
											OFFSET	80.8	-5.10001	12.1
											CHANNELS 3  Xrotation Yrotation Zrotation
											End Site
											{
												OFFSET	1	0	0
											}
										}
									}
								}
							}
						}
					}
				}
			}
		}
	}
	JOINT left_hip
	{
		OFFSET	-82.8	-127.5	0.300001
		CHANNELS 3  Xrotation Yrotation Zrotation
		JOINT left_knee
		{
			OFFSET	-28.2	-396.7	2.2
			CHANNELS 3  Xrotation Yrotation Zrotation
			JOINT left_ankle
			{
				OFFSET	-11.7	-411.3	35.4
				CHANNELS 3  Xrotation Yrotation Zrotation
				JOINT left_toes
				{
					OFFSET	0	-60	-88.6
					CHANNELS 3  Xrotation Yrotation Zrotation
					JOINT left_foot_ee
					{
						OFFSET	-22.5	-16.5	-42.2
						CHANNELS 3  Xrotation Yrotation Zrotation
						End Site
						{
							OFFSET	1	0	0
						}
					}
				}
			}
		}
	}
	JOINT right_hip
	{
		OFFSET	82.8	-127.5	0.300001
		CHANNELS 3  Xrotation Yrotation Zrotation
		JOINT right_knee
		{
			OFFSET	28.2	-396.7	2.2
			CHANNELS 3  Xrotation Yrotation Zrotation
			JOINT right_ankle
			{
				OFFSET	11.7	-411.3	35.4
				CHANNELS 3  Xrotation Yrotation Zrotation
				JOINT right_toes
				{
					OFFSET	0	-60	-88.6
					CHANNELS 3  Xrotation Yrotation Zrotation
					JOINT right_foot_ee
					{
						OFFSET	22.5	-16.5	-42.2
						CHANNELS 3  Xrotation Yrotation Zrotation
						End Site
						{
							OFFSET	1	0	0
						}
					}
				}
			}
		}
	}
}
MOTION
Frames: 6
Frame Time: 0.02
3177.02 653.055 -1669.29 1.18195875309 45.6637638601 -15.2567798351 -1.31994 1.56471 7.70882 -1.28756 1.07253 7.79206 -1.11137 -0.742342 7.83019 -1.19646 0.499684 7.84929 -16.1825 5.8338 10.1689 -15.9159 5.34634 11.5687 -0.0 0.0 -0.0 -10.3584 23.4451 -11.8619 -9.65811 -42.1959 80.9216 0.318314 -8.96101 0.024943 -31.74 -2.11857 3.40656 -0.608134 14.7562 2.26005 -0.0 0.0 -0.0 13.7405 25.7038 -27.4322 18.1994 44.1596 -63.7475 1.88936 43.1002 -0.746206 32.3741 0.0131057 4.08104 -0.420278 28.3749 14.7284 0.0 0.0 0.0 31.1408 35.6175 -3.01904 -7.5849 0.237178 1.13905 2.82102 20.7262 -0.419746 -23.6406 0.0 0.0 -0.0 0.0 -0.0 -12.8089 25.4757 18.0883 -42.5962 0.640144 -6.35785 40.8637 2.58239 4.97321 2.09901 -0.0 -0.0 0.0 0.0 0.0 
3107.30209281 647.432 -1678.40771872 2.03446001329 44.3846955479 -15.5777252359 -2.05271 1.46142 7.83491 -2.01911 0.9615 7.91136 -1.84872 -0.981515 7.90891 -1.93577 0.275771 7.96446 -11.1248 7.08052 9.76744 -10.8809 6.94744 11.2975 -0.0 0.0 -0.0 -10.2319 23.9898 -11.4368 -7.29694 -41.3762 80.0878 0.430536 -12.0396 0.0454018 -29.6528 -1.92384 3.22294 -0.728238 16.2309 2.14059 -0.0 0.0 -0.0 13.0191 25.4936 -25.7799 14.4876 41.3015 -63.727 2.55827 51.7151 -1.24004 32.1208 0.00405158 4.04996 -0.46322 25.786 13.9799 0.0 0.0 0.0 34.8431 35.8334 -6.15473 -26.2632 0.168961 3.99165 6.44407 17.1043 -0.938194 -14.5835 0.0 0.0 -0.0 0.0 -0.0 -20.1389 24.018 20.441 -36.7302 0.271958 -5.53509 42.264 -10.8638 5.07738 -3.19432 0.0 0.0 0.0 0.0 0.0 
3084.32191229 645.047 -1681.80396275 1.48748329353 44.5859136835 -14.7720131119 -2.06752 1.41593 7.80602 -2.03413 0.917925 7.87967 -1.8706 -1.01949 7.86725 -1.95677 0.231742 7.92925 -10.6772 7.62011 8.74553 -10.495 8.56079 10.429 -0.0 0.0 -0.0 -10.305 24.3672 -11.3792 -6.64457 -41.2315 79.9353 0.475275 -13.2485 0.0551953 -29.1664 -1.87944 3.17915 -1.20508 17.452 -0.23897 -0.0 0.0 -0.0 13.1104 26.617 -25.8579 13.2005 40.164 -62.9396 2.53291 51.4374 -1.22018 31.9705 -0.00125846 4.0315 -0.427028 23.096 12.6491 0.0 0.0 0.0 37.1977 35.4146 -8.78075 -32.5462 -0.0618521 4.92779 10.5158 14.566 -1.50233 -13.6924 0.0 0.0 -0.0 0.0 -0.0 -20.5997 21.5602 20.796 -35.1657 0.188196 -5.30978 42.1258 -14.2959 5.10771 -1.65083 0.0 0.0 0.0 0.0 0.0 
3057.6696468 642.089 -1683.63343476 1.61850706757 44.6547760712 -14.1179557691 -2.03428 1.46147 7.55343 -2.00311 0.979301 7.63049 -1.83757 -0.894117 7.64088 -1.91879 0.320156 7.68609 -10.397 8.30651 7.03313 -10.306 10.9572 8.93362 -0.0 0.0 -0.0 -10.0519 24.3849 -11.0029 -7.06162 -40.8793 78.7495 0.500567 -13.9267 0.0611373 -29.0188 -1.86603 3.16579 -1.21703 15.9173 -0.997036 -0.0 0.0 -0.0 13.2998 27.062 -26.2402 12.0782 39.4324 -62.6139 2.46457 50.6717 -1.16702 29.5215 -0.0808974 3.72885 -0.38924 22.0818 11.9802 0.0 0.0 0.0 38.9289 35.1789 -9.97418 -37.3806 -0.308591 5.62808 12.7286 17.019 -1.81543 -10.114 0.0 0.0 -0.0 0.0 -0.0 -22.7596 22.832 20.0272 -34.3763 0.148279 -5.19526 42.2016 -19.0887 5.20516 -1.656 0.0 0.0 0.0 0.0 0.0 
3008.59468596 638.856 -1691.30368122 2.72142438478 47.6301800127 -13.4734942465 -2.2166 1.24074 7.22195 -2.18795 0.779922 7.28579 -2.05593 -1.0331 7.25439 -2.12926 0.122372 7.32618 -10.6458 6.74123 6.74644 -10.5474 8.23066 8.27439 -0.0 0.0 -0.0 -9.41666 23.7191 -10.3558 -6.03984 -41.5452 76.6379 0.540822 -14.9979 0.0711911 -28.3267 -1.80366 3.10267 -1.10542 16.3601 -0.115485 -0.0 0.0 -0.0 13.6645 26.7058 -27.1316 9.99232 37.8028 -62.5266 2.0356 45.2337 -0.848114 30.5364 -0.049464 3.85468 -0.417911 18.8887 10.8495 0.0 0.0 0.0 38.7096 32.7599 -9.09249 -44.6489 -0.788698 6.63646 16.8692 16.534 -2.36532 -12.0516 0.0 0.0 -0.0 0.0 -0.0 -20.2858 22.1771 17.4464 -40.0649 0.4709 -6.00736 41.1219 -26.6246 5.33151 -2.37646 0.0 0.0 0.0 0.0 0.0 
2990.5127097 638.393 -1690.58289378 3.92654795558 49.0612799493 -14.1566755985 -2.30885 1.0622 7.08608 -2.28115 0.610317 7.13894 -2.17357 -1.17705 7.068 -2.2432 -0.0490057 7.16468 -11.6872 6.21168 5.10936 -11.6506 8.45297 6.62601 -0.0 0.0 -0.0 -9.22006 23.8435 -10.0196 -2.57636 -41.7034 76.1232 0.496789 -13.8256 0.0602313 -29.2325 -1.88545 3.18512 -1.03662 15.0001 -0.290828 -0.0 0.0 -0.0 13.1746 26.3834 -26.035 8.86552 37.4863 -62.3229 1.89247 43.1472 -0.74833 30.4935 -0.0508387 3.84937 -0.373097 17.596 10.0054 0.0 0.0 0.0 37.0022 29.0864 -6.66802 -47.1452 -0.982726 6.96797 19.7538 16.1497 -2.73372 -12.1168 0.0 0.0 -0.0 0.0 -0.0 -16.0836 22.2739 17.6399 -51.7986 1.3824 -7.56247 41.4159 -26.4672 5.35355 0.916934 -0.0 -0.0 0.0 0.0 0.0 
